<svg xmlns="http://www.w3.org/2000/svg" viewBox="0 0 16 16"><defs><style>.a{fill:#ff7043;}.b{fill:none;}</style></defs><title>Untitled-4</title><path class="a" d="M3.7894,13.68409H6.98334a.21052.21052,0,0,0,.14887-.35938L3.85106,10.04356a.21051.21051,0,0,1,0-.29772L7.13221,6.46469a.21053.21053,0,0,0-.14887-.35939H3.7894a.21053.21053,0,0,0-.14887.06166L.06166,9.74584a.21053.21053,0,0,0,0,.29772l3.57887,3.57887A.21053.21053,0,0,0,3.7894,13.68409Z"/><path class="a" d="M12.2106,2.31591H9.01666a.21052.21052,0,0,0-.14887.35938l3.28115,3.28115a.21051.21051,0,0,1,0,.29772L8.86779,9.53531a.21053.21053,0,0,0,.14887.35939H12.2106a.21053.21053,0,0,0,.14887-.06166l3.57887-3.57888a.21053.21053,0,0,0,0-.29772L12.35947,2.37757A.21053.21053,0,0,0,12.2106,2.31591Z"/><rect class="b" width="16" height="16"/></svg>